<svg width="16" height="12" fill="none" xmlns="http://www.w3.org/2000/svg"><path fill="#E5E5E5" d="M0 0h16v12H0z"/><g clip-path="url(#clip0)"><path fill="#fff" d="M-1052-34H548v3018h-1600z"/><path fill="#fff" d="M-1052-34H548v80h-1600z"/><path d="M14.5 0h-13C.673 0 0 .6281 0 1.4003v8.4014c0 .7722.6729 1.4003 1.5 1.4003h13c.8271 0 1.5-.6281 1.5-1.4003V1.4003C16 .628 15.3271 0 14.5 0zm0 .9335a.5278.5278 0 01.1916.0361L8 6.3836 1.3083.9696A.5285.5285 0 011.5.9335h13zm0 9.335h-13c-.2759 0-.5-.2092-.5-.4668V1.9559L7.6724 7.354A.5209.5209 0 008 7.468a.5207.5207 0 00.3276-.114L15 1.956v7.8458c0 .2576-.2241.4668-.5.4668z" fill="#757575"/><path d="M14.5 0h-13C.673 0 0 .6281 0 1.4003v8.4014c0 .7722.6729 1.4003 1.5 1.4003h13c.8271 0 1.5-.6281 1.5-1.4003V1.4003C16 .628 15.3271 0 14.5 0zm0 .9335a.5278.5278 0 01.1916.0361L8 6.3836 1.3083.9696A.5285.5285 0 011.5.9335h13zm0 9.335h-13c-.2759 0-.5-.2092-.5-.4668V1.9559L7.6724 7.354A.5209.5209 0 008 7.468a.5207.5207 0 00.3276-.114L15 1.956v7.8458c0 .2576-.2241.4668-.5.4668z" fill="#2196F3"/></g><defs><clipPath id="clip0"><path fill="#fff" d="M-1052-34H548v3018h-1600z"/></clipPath></defs></svg>